<?xml version="1.0" encoding="UTF-8" standalone="no"?>
<!-- Generator: Adobe Illustrator 26.0.1, SVG Export Plug-In . SVG Version: 6.00 Build 0)  -->

<svg
   version="1.1"
   id="svg57"
   x="0px"
   y="0px"
   viewBox="0 0 180 49.8"
   style="enable-background:new 0 0 180 49.8;"
   xml:space="preserve"
   sodipodi:docname="logo.svg"
   inkscape:version="1.2 (dc2aedaf03, 2022-05-15)"
   xmlns:inkscape="http://www.inkscape.org/namespaces/inkscape"
   xmlns:sodipodi="http://sodipodi.sourceforge.net/DTD/sodipodi-0.dtd"
   xmlns="http://www.w3.org/2000/svg"
   xmlns:svg="http://www.w3.org/2000/svg"><defs
   id="defs67">
	
	
	
	
	
	
	
	
	
</defs><sodipodi:namedview
   id="namedview65"
   pagecolor="#ffffff"
   bordercolor="#666666"
   borderopacity="1.0"
   inkscape:pageshadow="2"
   inkscape:pageopacity="0.0"
   inkscape:pagecheckerboard="0"
   showgrid="false"
   inkscape:zoom="8.189478"
   inkscape:cx="95.671543"
   inkscape:cy="33.579674"
   inkscape:window-width="1680"
   inkscape:window-height="987"
   inkscape:window-x="-8"
   inkscape:window-y="-8"
   inkscape:window-maximized="1"
   inkscape:current-layer="svg57"
   inkscape:showpageshadow="2"
   inkscape:deskcolor="#d1d1d1" />
<style
   type="text/css"
   id="style2">
	.st0{fill-rule:evenodd;clip-rule:evenodd;fill:#424242;}
	.st1{fill-rule:evenodd;clip-rule:evenodd;fill:#84C858;}
	.st2{fill-rule:evenodd;clip-rule:evenodd;fill:#68D14D;}
	.st3{fill-rule:evenodd;clip-rule:evenodd;}
	.st4{fill-rule:evenodd;clip-rule:evenodd;fill:#32A468;}
	.st5{fill-rule:evenodd;clip-rule:evenodd;fill:#FAFEF9;}
	.st6{fill-rule:evenodd;clip-rule:evenodd;fill:url(#path47_00000099651222853612683680000011639277258066118802_);}
	.st7{fill-rule:evenodd;clip-rule:evenodd;fill:url(#path49_00000090265977425194625820000015992656146775600549_);}
	.st8{enable-background:new    ;}
	.st9{fill:#FA194C;}
	.st10{fill-rule:evenodd;clip-rule:evenodd;fill:#1C1C1C;}
</style>
<g
   id="_1850682512096"
   transform="matrix(1.499833,0,0,1.5303824,-4289.1029,-48.199299)">
	<path
   id="path17"
   class="st0"
   d="M2953.5,44.5c-0.6,0.3-0.9,0.5-1,1.2v6.8c0,0.6,0.2,1.2,0.7,1.4c0.7,0.3,1.1,0.1,1.7-0.2   c0.6-0.4,5.3-3.2,5.6-3.5c0.4-0.4,0.5-1.1,0.2-1.7c-0.3-0.4-0.9-0.7-1.3-0.9l-4.9-3C2954.1,44.4,2953.9,44.4,2953.5,44.5z"
   style="fill:#1c1c1c;fill-opacity:1" />
	<g
   id="g45">
		<path
   id="path19"
   class="st1"
   d="M2972.8,34.1l0.3,0.1l-0.2,0.3l-0.3-0.2L2972.8,34.1z M2973.3,34c-0.3-0.2-0.3-0.2-0.1-0.5    l0.3,0.2L2973.3,34z M2967.9,41l0.8-1l-0.4-2.3l0.3-0.1c0.3,0.4,0.3,1.4,0.4,1.9l1-1.4c0-0.6-0.5-1.9-0.3-2.3l0.3,0    c0.1,0.5,0.2,1.4,0.4,1.8l0.9-1.2l-0.3-1.9l0.4,0l0.2,1.4l0.8-1.1l0.3,0.2l-0.8,1.1l1.4-0.2l0.1,0.3c-0.4,0.1-1.7,0.2-1.9,0.4    c-0.2,0.1-0.9,1.2-0.9,1.3c0.5,0,1.5-0.4,1.9-0.2l0,0.3c-1.4,0.6-2.1-0.5-3.2,1.8c0.5-0.1,1.4-0.3,1.9-0.3l0,0.3l-2.3,0.4    l-0.8,1.1c1.5-0.1,2.9-0.5,4.3-1.1c0.5-0.2,0.8-0.9,1.1-0.9c0.2-0.2,0.1,0,0.1-0.3c0.2-0.4,0.5-0.8,0.6-1.2    c0.2-0.5,0.3-1.1,0.4-1.5c0.1-1.2-0.1-2.3-0.3-3.5c-0.1-0.3,0,0-0.2-0.1c-2.3,0.4-3.9,0.5-5.4,2.3    C2967.2,37,2967.4,38.5,2967.9,41z" />
		<path
   id="path21"
   class="st2"
   d="M2976.7,40.2l0,0.4l-0.4,0l0-0.4L2976.7,40.2z M2977.2,40.5c-0.2-0.4-0.1-0.4,0.3-0.4l0.1,0.3    L2977.2,40.5z M2972.9,40.9c0.6-0.1,1.1,0,1.5-0.6c0.2-0.3,0.6-0.9,0.9-1.1l0.2,0.1c-0.1,0.5-0.6,0.8-0.8,1.3l1.3-0.2v0.3    l-1.3,0.2c0.3,0.3,1,0.6,1.2,0.9l-0.2,0.2c-1.7-1.2-1.2-1.1-2.4-0.9c-0.4,0.1-0.5,0-0.8,0.2c0.3,0.1,1.4,0.8,1.5,1.1l-0.2,0.3    l-1.9-1.4l-1.7,0.3l1.5,1.2l-0.2,0.2l-1.4-0.9l-1.2,0.2c0.3,0.6,2.3,1.4,3.1,1.5c1.7,0.3,2.5,0,4-0.5c0.6-0.1,1.4-1.1,1.7-1.5    c0.3-0.3,1.2-1.6,1.3-1.9c-0.5-0.6-3.1-2.2-3.9-2.2h-0.2c-0.2,0.5-0.6,1.3-0.9,1.7C2973.7,40.1,2973.2,40.4,2972.9,40.9z" />
		<path
   id="path23"
   class="st3"
   d="M2967.2,42l0.2,0.3l0.1,0.1l0.5,0.3l0.1,0l0.1-0.3l-0.3-0.3l1.8-0.3l0.5,0.4l1.4,0.9l0.2-0.2    l-1.5-1.2l1.7-0.3l1.9,1.4l0.2-0.3c-0.2-0.2-1.2-0.9-1.5-1.1c0.3-0.2,0.4-0.2,0.8-0.2c1.1-0.2,0.6-0.3,2.4,0.9l0.2-0.2    c-0.2-0.3-0.9-0.6-1.2-0.9l1.3-0.2v-0.3l-1.3,0.2c0.2-0.5,0.7-0.8,0.8-1.3l-0.2-0.1c-0.3,0.2-0.6,0.8-0.9,1.1    c-0.3,0.5-0.8,0.5-1.5,0.6l-1.1,0.2c0.6-0.2,1.7-1.2,1.9-1.7l-0.1-0.2c-0.3,0-0.6,0.8-1.1,0.9c-0.5,0.9-3.6,1.4-4.6,1.5l0.3-0.4    l0.8-1.1l2.3-0.4l0-0.3c-0.5,0-1.4,0.2-1.9,0.3c1.1-2.3,1.8-1.2,3.2-1.8l0-0.3c-0.4-0.2-1.4,0.2-1.9,0.2c0.1-0.2,0.8-1.2,0.9-1.3    c0.2-0.2,1.5-0.3,1.9-0.4l-0.1-0.3l-1.4,0.2l0.8-1.1l-0.3-0.2l-0.8,1.1l-0.2-1.4l-0.4,0l0.3,1.9l-0.9,1.2    c-0.2-0.4-0.3-1.2-0.4-1.8l-0.3,0c-0.1,0.5,0.3,1.7,0.3,2.3l-1,1.4c-0.1-0.5-0.1-1.5-0.4-1.9l-0.3,0.1l0.4,2.3l-0.8,1l-0.2,0.4    c-0.3-0.5-0.5-2.2-0.5-2.8c0-0.9,0.2-1.8,0.5-2.6c0.5-1.1,2-2.8,3.3-3.1l-0.1-0.3l-0.1-0.2c-1.5,0.7-2.9,1.7-3.6,3.4    c-0.8,2-0.6,2.6-0.3,4.4C2967,40.8,2967.2,41.6,2967.2,42z" />
		<path
   id="path25"
   class="st3"
   d="M2971.2,32.6l0.2,0.2l2.9-0.6l0.2,0.5c0.2,1.2,0.4,2.2,0.3,3.5c0,0.5-0.2,1.1-0.4,1.5    c-0.2,0.4-0.5,0.9-0.6,1.2l0.3,0.2c0.2-0.5,0.5-0.8,0.7-1.4l0.5,0.1c0.8,0,3.4,1.6,3.9,2.2c-0.1,0.3-1.1,1.5-1.3,1.9    c-0.3,0.5-1.2,1.4-1.7,1.5c-0.5,0.7-2.7,1-3.6,0.9c-1.4-0.1-2.2-0.5-3.3-1.2l-0.3,0.1l0,0.2c0.6,0.6,2.2,1.2,3,1.3    c1.3,0.1,2.4-0.1,3.6-0.5c0.9-0.3,1.9-1.1,2.4-1.8c0.3-0.3,1.7-2.3,1.7-2.5c-1.1-0.9-3.4-2.5-4.8-2.5c0.1-0.5,0.2-0.8,0.2-1.3    c0-0.5,0-1.1,0-1.5l-0.5-2.7c-0.6,0-2.8,0.5-3.4,0.6V32.6z" />
		<path
   id="path27"
   class="st4"
   d="M2971.2,32.6l-0.3,0.1l0.1,0.3c-1.3,0.3-2.8,2-3.3,3.1c-0.3,0.8-0.6,1.7-0.5,2.6    c0,0.6,0.2,2.3,0.5,2.8l0.2-0.4c-0.5-2.5-0.6-4,1-6.1c1.5-1.9,3.1-2,5.4-2.3c0.2,0.1,0-0.2,0.2,0.1l-0.2-0.5l-2.9,0.6L2971.2,32.6    z" />
		<path
   id="path29"
   class="st4"
   d="M2968.1,42.7l0.3,0.2l0.2-0.2l0.3,0.2l-0.1,0.2l0.2,0.2l0.3-0.1c1.1,0.7,1.9,1.1,3.3,1.2    c0.9,0,3.1-0.2,3.6-0.9c-1.5,0.5-2.3,0.8-4,0.5c-0.7-0.2-2.8-0.9-3.1-1.5l1.2-0.2l-0.5-0.4l-1.8,0.3l0.3,0.3L2968.1,42.7z" />
		<path
   id="path31"
   class="st4"
   d="M2973.7,38.9c0,0.3,0.1,0.1-0.1,0.3l0.1,0.2c-0.2,0.5-1.4,1.5-1.9,1.7l1.1-0.2    c0.3-0.5,0.8-0.8,1.2-1.3c0.3-0.5,0.8-1.2,0.9-1.7h0.2l-0.5-0.1c-0.2,0.6-0.5,0.9-0.7,1.4L2973.7,38.9z" />
		<path
   id="path33"
   class="st4"
   d="M2968.2,41.3l-0.3,0.4c1-0.1,4.1-0.6,4.6-1.5C2971.1,40.7,2969.7,41.2,2968.2,41.3z" />
		<polygon
   id="polygon35"
   class="st3"
   points="2968.4,43.1 2968.6,43.2 2968.8,43.1 2968.9,42.8 2968.6,42.7 2968.4,42.8   " />
		<polygon
   id="polygon37"
   class="st5"
   points="2976.4,40.7 2976.8,40.6 2976.7,40.2 2976.4,40.3   " />
		<polygon
   id="polygon39"
   class="st5"
   points="2972.9,34.6 2973.1,34.2 2972.8,34.1 2972.5,34.4   " />
		<path
   id="path41"
   class="st5"
   d="M2977.2,40.5l0.3,0l-0.1-0.3C2977.1,40.1,2977,40.1,2977.2,40.5z" />
		<path
   id="path43"
   class="st5"
   d="M2973.3,34l0.2-0.3l-0.3-0.2C2973,33.8,2972.9,33.8,2973.3,34z" />
	</g>
	
		<linearGradient
   id="path47_00000039829917606309052410000018417702900109667484_"
   gradientUnits="userSpaceOnUse"
   x1="8934.7314"
   y1="-4575.9346"
   x2="9020.501"
   y2="-4711.8726"
   gradientTransform="matrix(5.668053e-02 0 0 -5.783503e-02 2459.3723 -209.782)">
		<stop
   offset="0"
   style="stop-color:#FA1C4C"
   id="stop19" />
		<stop
   offset="1"
   style="stop-color:#F43946"
   id="stop21" />
	</linearGradient>
	
		<path
   id="path47"
   style="fill-rule:evenodd;clip-rule:evenodd;fill:url(#path47_00000039829917606309052410000018417702900109667484_);"
   d="   M2969.1,49.2h-5.9v11.6c0,1.6,1.3,2.9,3,2.9l0,0c1.6,0,2.9-1.3,2.9-2.9V49.2z" />
	
		<linearGradient
   id="path49_00000066483950813114991960000016382308251350077364_"
   gradientUnits="userSpaceOnUse"
   x1="8561.2295"
   y1="-4391.7607"
   x2="9346.5088"
   y2="-4734.9409"
   gradientTransform="matrix(5.668053e-02 0 0 -5.783503e-02 2459.3723 -209.782)">
		<stop
   offset="0"
   style="stop-color:#FA194C"
   id="stop25" />
		<stop
   offset="1"
   style="stop-color:#F24744"
   id="stop27" />
	</linearGradient>
	
		<path
   id="path49"
   style="fill-rule:evenodd;clip-rule:evenodd;fill:url(#path49_00000066483950813114991960000016382308251350077364_);"
   d="   M2956.1,62.3c7.2,0,13.1-5.9,13.1-13.1c0-7.3-5.9-13.1-13.1-13.1c-7.2,0-13.1,5.9-13.1,13.1C2943,56.4,2948.8,62.3,2956.1,62.3z    M2956.1,56.4c3.9,0,7.1-3.2,7.1-7.1c0-4-3.2-7.1-7.1-7.1c-3.9,0-7.1,3.2-7.1,7.1C2948.9,53.2,2952.1,56.4,2956.1,56.4z" />
</g>


<g
   aria-label="رسانه آلبالو"
   transform="scale(0.9433431,1.0600597)"
   id="text877"
   style="font-size:27.5416px;line-height:1.25;fill:#1c1c1c;stroke-width:0.68854"><path
     d="m 125.12301,13.938474 q 0.28739,0.826248 0.57478,1.748293 0.28739,0.922045 0.5149,1.856064 0.2395,0.93402 0.38319,1.856065 0.1437,0.91007 0.1437,1.748292 0,1.68842 -0.59873,3.233145 -0.59873,1.556699 -1.67645,2.921804 -1.06574,1.37708 -2.52664,2.538617 -1.4609,1.173512 -3.18525,2.083582 l -2.90983,-3.736078 q 1.28129,-0.682553 2.47875,-1.520775 1.19746,-0.826248 2.13148,-1.736318 0.94599,-0.910071 1.53275,-1.868039 0.58675,-0.957969 0.6586,-1.891988 -0.20357,-0.682553 -0.44306,-1.37708 -0.22752,-0.694528 -0.47898,-1.365106 -0.2395,-0.670578 -0.49096,-1.305232 -0.25147,-0.634654 -0.47899,-1.185486 z"
     style="font-weight:900;font-family:IRANSans;-inkscape-font-specification:'IRANSans Heavy'"
     id="path9348" /><path
     d="m 97.713158,18.680419 q 0.7544,0 1.269309,-0.419111 0.526882,-0.419112 0.91007,-1.137588 0.383183,-0.718477 0.670573,-1.664471 0.2874,-0.957968 0.56281,-2.023708 l 4.02347,0.7544 q -0.10777,0.44306 -0.23949,0.993892 -0.11975,0.538858 -0.22752,1.08969 -0.0958,0.538857 -0.16764,1.06574 -0.0599,0.514908 -0.0599,0.922045 0.012,0.395162 0.10777,0.646629 0.10778,0.251466 0.33529,0.263441 0.43109,-0.02395 0.76638,-0.299365 0.34726,-0.287391 0.6107,-0.730451 0.27542,-0.443061 0.47899,-1.017842 0.20357,-0.574781 0.34726,-1.197461 0.15567,-0.62268 0.26344,-1.245359 0.11975,-0.62268 0.21555,-1.173512 l 3.59238,0.598731 q -0.0359,0.383187 -0.10777,0.922044 -0.0719,0.538858 -0.11975,1.113639 -0.0479,0.574781 -0.0479,1.137588 0.012,0.562806 0.11975,1.017842 0.10777,0.44306 0.34726,0.718476 0.25147,0.275416 0.69453,0.275416 0.63465,0 0.99389,-0.239492 0.35924,-0.239492 0.51491,-0.646629 0.15567,-0.419111 0.13172,-0.945994 -0.0239,-0.538857 -0.15567,-1.113639 -0.13172,-0.586755 -0.34726,-1.173511 -0.21555,-0.598731 -0.44306,-1.125613 -0.21555,-0.526883 -0.43109,-0.945994 -0.20357,-0.431086 -0.32331,-0.670579 l 3.54448,-1.97581 q 0.32331,0.706502 0.68255,1.604598 0.35924,0.886121 0.64663,1.868038 0.29937,0.981918 0.49096,1.99976 0.20357,1.005867 0.20357,1.951861 0,1.305233 -0.34726,2.358998 -0.34727,1.041791 -1.05377,1.784217 -0.7065,0.730451 -1.78422,1.125613 -1.07771,0.407137 -2.53861,0.419111 -0.59873,0 -1.13759,-0.191593 -0.53886,-0.17962 -0.99389,-0.46701 -0.44306,-0.275416 -0.79033,-0.610705 -0.33529,-0.335289 -0.52688,-0.634654 -0.22752,0.347263 -0.56281,0.682552 -0.33529,0.335289 -0.77835,0.598731 -0.43108,0.275416 -0.98192,0.44306 -0.53885,0.167645 -1.18548,0.179619 -0.56281,0.01197 -1.07772,-0.143695 -0.5149,-0.15567 -0.94599,-0.419111 -0.41911,-0.251467 -0.74243,-0.586756 -0.32331,-0.335289 -0.50293,-0.682553 -0.17962,0.359238 -0.51491,0.670578 -0.33529,0.31134 -0.81427,0.526883 -0.467011,0.227518 -1.077716,0.359238 -0.59873,0.131721 -1.305232,0.131721 h -0.431086 v -4.741945 z"
     style="font-weight:900;font-family:IRANSans;-inkscape-font-specification:'IRANSans Heavy'"
     id="path9350" /><path
     d="m 97.617395,23.422364 q -1.628547,0 -2.766135,-0.443061 -1.125613,-0.431085 -1.84409,-1.19746 -0.706501,-0.77835 -1.029816,-1.820141 -0.323314,-1.053765 -0.323314,-2.28715 0,-1.616572 0.02395,-3.245119 0.02395,-1.628547 0,-3.269068 Q 91.65404,9.507869 91.546268,7.8433984 91.450471,6.1669533 91.18703,4.4545843 l 4.490478,-1.3651054 q 0.31134,1.5806483 0.431086,3.2810427 0.119746,1.6884198 0.131721,3.4127634 0.02395,1.712369 -0.02395,3.400789 -0.03592,1.68842 -0.03592,3.245119 0,0.538857 0,0.981918 0.01197,0.431085 0.13172,0.730451 0.131721,0.28739 0.431086,0.431086 0.299365,0.143695 0.886121,0.107771 h 0.323315 v 4.741945 z"
     style="font-weight:900;font-family:IRANSans;-inkscape-font-specification:'IRANSans Heavy'"
     id="path9352" /><path
     d="m 81.164286,18.680419 h 1.484852 q 0.431086,0 0.969943,-0.0479 0.550832,-0.05987 1.017842,-0.191594 0.478984,-0.143695 0.802299,-0.359238 0.335289,-0.227518 0.335289,-0.562807 0,-0.251467 -0.203569,-0.7544 -0.191593,-0.514908 -0.502933,-1.173512 -0.31134,-0.670578 -0.682553,-1.424978 -0.371213,-0.754401 -0.730451,-1.484852 l 4.28691,-2.119505 q 0.359238,0.826248 0.694527,1.724343 0.347264,0.898096 0.610705,1.796191 0.263441,0.898096 0.419111,1.772242 0.167645,0.874147 0.167645,1.640522 0,1.568673 -0.514908,2.694287 -0.514908,1.113638 -1.436953,1.832115 -0.922045,0.718476 -2.215303,1.053765 -1.281283,0.347264 -2.826007,0.347264 h -1.676446 z m 3.8199,-9.1845246 -2.658363,-2.6583631 2.658363,-2.658363 2.658364,2.658363 z"
     style="font-weight:900;font-family:IRANSans;-inkscape-font-specification:'IRANSans Heavy'"
     id="path9354" /><path
     d="m 74.865689,21.745919 q -1.269309,0 -2.394922,-0.263442 -1.113638,-0.263441 -1.951861,-0.826248 -0.826248,-0.562806 -1.305232,-1.436953 -0.478985,-0.874146 -0.478985,-2.083581 0,-0.838223 0.287391,-1.592623 0.287391,-0.754401 0.7544,-1.413004 0.478985,-0.670578 1.08969,-1.22141 0.610705,-0.562807 1.245359,-1.005867 0.646629,-0.443061 1.257334,-0.766375 0.622679,-0.335289 1.113638,-0.538858 L 74.302882,9.1366561 78.97298,8.1427637 q 0.263441,2.3470233 0.490959,4.2150623 0.239492,1.856064 0.419111,3.161296 0.179619,1.293258 0.28739,1.99976 0.119746,0.706502 0.143696,0.7544 0.107771,0.239493 0.359238,0.323315 0.251467,0.08382 0.706502,0.08382 h 0.263441 v 4.741945 h -0.347263 q -1.448928,0 -2.586516,-0.431086 -1.125613,-0.431086 -1.772242,-1.365105 -0.538857,0.05987 -1.053765,0.0958 -0.514909,0.02395 -1.017842,0.02395 z m -2.550592,-4.801818 q 0.02395,0.119746 0.347264,0.251467 0.335289,0.119746 0.814273,0.203568 0.478985,0.07185 1.017842,0.08382 0.550832,0 0.993893,-0.119746 l -0.431086,-2.897855 q -0.490959,0.191594 -0.993893,0.538857 -0.502933,0.347264 -0.898095,0.718477 -0.395163,0.371213 -0.646629,0.706502 -0.239493,0.335289 -0.203569,0.514908 z"
     style="font-weight:900;font-family:IRANSans;-inkscape-font-specification:'IRANSans Heavy'"
     id="path9356" /><path
     d="m 52.401351,23.051151 q 0.0479,-0.778349 0.0958,-1.652496 0.0479,-0.886121 0.08382,-1.760267 0.0479,-0.886121 0.07185,-1.712369 0.02395,-0.838223 0.02395,-1.544725 0,-3.400789 -0.143695,-5.939406 -0.131721,-2.5505911 -0.347264,-4.2270363 l 4.478504,-1.3890546 q 0.191594,1.4968261 0.299365,2.9098299 0.119746,1.4010291 0.179619,2.646388 0.05987,1.24536 0.08382,2.299125 0.02395,1.041791 0.02395,1.808166 0,0.77835 -0.01197,1.736318 0,0.945994 -0.02395,1.987785 -0.01197,1.029817 -0.0479,2.095557 -0.03592,1.053765 -0.0958,2.023709 z M 49.814836,3.5804379 Q 49.994455,2.8859106 50.353693,2.3350786 50.724906,1.772272 51.191916,1.3890845 51.6709,1.0058971 52.233707,0.80232872 q 0.562806,-0.21554296 1.149562,-0.21554296 0.431086,0 0.814274,0.11974609 0.383187,0.10777147 0.742425,0.25146677 0.359238,0.13172068 0.706502,0.25146678 0.359238,0.1077715 0.742426,0.1077715 0.203568,0 0.383187,-0.035924 0.191594,-0.035924 0.383188,-0.1436954 0.191594,-0.119746 0.395162,-0.31133977 0.203568,-0.20356834 0.455035,-0.52688277 l 1.987785,1.26930854 q -0.02395,0.059873 -0.31134,0.4191112 Q 59.406497,2.3470532 58.915538,2.7661645 58.436554,3.1733012 57.789925,3.5085902 57.143296,3.8438792 56.40087,3.8558539 55.933861,3.8678285 55.550673,3.760057 55.17946,3.6403109 54.844171,3.5085902 54.508882,3.3648949 54.185568,3.2451488 53.862253,3.1254027 53.491041,3.1254027 q -0.407137,0 -0.790325,0.2993653 -0.383187,0.2993652 -0.574781,1.0058671 z"
     style="font-weight:900;font-family:IRANSans;-inkscape-font-specification:'IRANSans Heavy'"
     id="path9358" /><path
     d="m 43.013282,18.680419 h 0.694527 q 1.880013,0 1.84409,-2.167404 0,-0.107772 -0.03592,-0.562807 -0.03592,-0.455035 -0.107772,-1.149562 Q 45.34833,14.094144 45.264508,13.208023 45.19266,12.321902 45.096863,11.351959 45.013041,10.382015 44.917244,9.3881229 44.821447,8.3822558 44.737625,7.460211 44.653803,6.5381661 44.569981,5.747842 44.498133,4.9575178 44.450235,4.3947112 l 4.646148,-1.161537 q 0.03592,0.3831875 0.107771,1.3531308 0.07185,0.9699432 0.167645,2.6224392 0.0958,1.6405213 0.203568,4.0234688 0.119746,2.370972 0.239492,5.556218 0,0.0958 0,0.179619 0.01197,0.07185 0.01197,0.167645 0,1.389054 -0.383188,2.550591 -0.383187,1.149563 -1.149562,1.987785 -0.7544,0.826248 -1.903963,1.281283 -1.149562,0.46701 -2.682312,0.46701 h -0.694527 z"
     style="font-weight:900;font-family:IRANSans;-inkscape-font-specification:'IRANSans Heavy'"
     id="path9360" /><path
     d="m 43.492301,18.680419 v 4.741945 h -0.263442 q -1.125613,0 -2.023709,-0.383188 -0.898095,-0.371212 -1.365105,-1.053765 -0.682553,0.7544 -1.951861,1.089689 -1.257334,0.347264 -2.873906,0.347264 h -0.455035 v -4.741945 h 0.455035 q 0.766375,0 1.305232,-0.03592 0.550832,-0.03592 0.886121,-0.179619 0.347264,-0.143695 0.502934,-0.419111 0.167644,-0.275416 0.179619,-0.754401 0.01197,-0.478984 -0.119746,-1.185486 -0.119746,-0.718476 -0.335289,-1.724343 l 4.26296,-1.053766 q 0.107772,0.455035 0.203569,1.089689 0.107771,0.62268 0.179619,1.293258 0.07185,0.658604 0.08382,1.293258 0.01197,0.622679 -0.05987,1.053765 0.107771,0.239493 0.251467,0.371213 0.143695,0.119746 0.299365,0.179619 0.15567,0.0479 0.299365,0.05987 0.143695,0.01197 0.275416,0.01197 z m -4.658123,10.825046 -2.658363,-2.658363 2.658363,-2.658363 2.658363,2.658363 z"
     style="font-weight:900;font-family:IRANSans;-inkscape-font-specification:'IRANSans Heavy'"
     id="path9362" /><path
     d="m 34.714946,23.422364 q -1.628547,0 -2.766134,-0.443061 -1.125614,-0.431085 -1.84409,-1.19746 -0.706502,-0.77835 -1.029817,-1.820141 -0.323314,-1.053765 -0.323314,-2.28715 0,-1.616572 0.02395,-3.245119 0.02395,-1.628547 0,-3.269068 -0.02395,-1.652496 -0.13172,-3.3169666 -0.0958,-1.6764451 -0.359239,-3.3888141 l 4.490478,-1.3651054 q 0.31134,1.5806483 0.431086,3.2810427 0.119746,1.6884198 0.131721,3.4127634 0.02395,1.712369 -0.02395,3.400789 -0.03592,1.68842 -0.03592,3.245119 0,0.538857 0,0.981918 0.01197,0.431085 0.131721,0.730451 0.13172,0.28739 0.431086,0.431086 0.299365,0.143695 0.886121,0.107771 h 0.323314 v 4.741945 z"
     style="font-weight:900;font-family:IRANSans;-inkscape-font-specification:'IRANSans Heavy'"
     id="path9364" /><path
     d="m 20.070021,18.680419 h 0.694528 q 1.880013,0 1.844089,-2.167404 0,-0.107772 -0.03592,-0.562807 -0.03592,-0.455035 -0.107772,-1.149562 Q 22.40507,14.094144 22.321248,13.208023 22.2494,12.321902 22.153603,11.351959 22.069781,10.382015 21.973984,9.3881229 21.878187,8.3822558 21.794365,7.460211 21.710543,6.5381661 21.62672,5.747842 21.554873,4.9575178 21.506974,4.3947112 l 4.646148,-1.161537 q 0.03592,0.3831875 0.107772,1.3531308 0.07185,0.9699432 0.167644,2.6224392 0.0958,1.6405213 0.203569,4.0234688 0.119746,2.370972 0.239492,5.556218 0,0.0958 0,0.179619 0.01197,0.07185 0.01197,0.167645 0,1.389054 -0.383188,2.550591 -0.383187,1.149563 -1.149562,1.987785 -0.754401,0.826248 -1.903963,1.281283 -1.149562,0.46701 -2.682312,0.46701 h -0.694528 z"
     style="font-weight:900;font-family:IRANSans;-inkscape-font-specification:'IRANSans Heavy'"
     id="path9366" /><path
     d="m 7.568545,27.230289 q 1.4728768,-0.311339 2.730211,-0.730451 1.257334,-0.419111 2.251226,-0.91007 1.005867,-0.490959 1.712369,-1.041791 0.718477,-0.550832 1.101664,-1.125613 -0.179619,0 -0.395162,-0.01198 -0.215543,0 -0.431086,-0.01197 -0.203568,-0.01197 -0.395162,-0.02395 -0.179619,0 -0.299365,-0.01198 Q 12.561957,23.254719 11.520166,22.871532 10.478375,22.488344 9.7359491,21.817766 8.9935234,21.135214 8.5863867,20.16527 8.17925,19.195327 8.17925,17.926019 q 0,-0.77835 0.1915938,-1.604598 0.2035683,-0.826248 0.5628066,-1.616572 0.3592382,-0.790324 0.8501972,-1.484851 0.5029334,-0.694528 1.1016644,-1.22141 0.59873,-0.526883 1.269308,-0.826248 0.682553,-0.31134 1.401029,-0.31134 0.862172,0 1.628547,0.323314 0.766375,0.323315 1.413004,0.886121 0.658603,0.550832 1.185486,1.317207 0.538857,0.7544 0.945994,1.628547 0.407137,0.862172 0.682553,1.808166 0.275416,0.934019 0.419111,1.856064 h 0.718476 v 4.741945 h -0.993892 q -0.502934,1.712369 -1.556699,3.089449 -1.053766,1.37708 -2.490719,2.418871 -1.436953,1.053765 -3.185245,1.772242 -1.748293,0.718476 -3.6402814,1.125613 z m 5.903482,-11.842887 q -0.347264,0 -0.646629,0.227517 -0.299365,0.227518 -0.526883,0.574781 -0.215543,0.33529 -0.347263,0.730452 -0.119746,0.383187 -0.119746,0.718476 0,0.227518 0.203568,0.395162 0.215543,0.167645 0.562807,0.287391 0.347263,0.107771 0.790324,0.179619 0.44306,0.07185 0.898095,0.107771 0.46701,0.03592 0.898096,0.0479 0.44306,0.01197 0.790324,0.01197 -0.05987,-0.550832 -0.275416,-1.137587 -0.203568,-0.586756 -0.538857,-1.053766 -0.323315,-0.478984 -0.754401,-0.778349 -0.431086,-0.31134 -0.934019,-0.31134 z"
     style="font-weight:900;font-family:IRANSans;-inkscape-font-specification:'IRANSans Heavy'"
     id="path9368" /></g><text
   xml:space="preserve"
   style="font-size:12.7174px;font-family:IRANSans;-inkscape-font-specification:'IRANSans, Normal';fill:#999999;stroke-width:0.681286"
   x="5.046598"
   y="43.734959"
   id="text263"><tspan
     sodipodi:role="line"
     id="tspan261"
     x="5.046598"
     y="43.734959"
     style="stroke-width:0.681286">ویدئو ، پادکست ، فایل</tspan></text></svg>
