<?xml version="1.0" encoding="UTF-8" standalone="no"?>
<!-- Created with Inkscape (http://www.inkscape.org/) -->

<svg
   width="402.14261"
   height="153.48584"
   viewBox="0 0 106.40042 40.609795"
   version="1.1"
   id="svg8408"
   xml:space="preserve"
   inkscape:version="1.2 (dc2aedaf03, 2022-05-15)"
   sodipodi:docname="AlbalouemV2.0.svg"
   inkscape:export-filename="AlbalouemV2.0.png"
   inkscape:export-xdpi="96"
   inkscape:export-ydpi="96"
   xmlns:inkscape="http://www.inkscape.org/namespaces/inkscape"
   xmlns:sodipodi="http://sodipodi.sourceforge.net/DTD/sodipodi-0.dtd"
   xmlns="http://www.w3.org/2000/svg"
   xmlns:svg="http://www.w3.org/2000/svg"><sodipodi:namedview
     id="namedview8410"
     pagecolor="#ffffff"
     bordercolor="#000000"
     borderopacity="0.25"
     inkscape:showpageshadow="2"
     inkscape:pageopacity="0.0"
     inkscape:pagecheckerboard="0"
     inkscape:deskcolor="#d1d1d1"
     inkscape:document-units="mm"
     showgrid="false"
     inkscape:zoom="2.7760489"
     inkscape:cx="273.77039"
     inkscape:cy="79.609548"
     inkscape:window-width="1680"
     inkscape:window-height="987"
     inkscape:window-x="-8"
     inkscape:window-y="-8"
     inkscape:window-maximized="1"
     inkscape:current-layer="g842" /><defs
     id="defs8405"><inkscape:path-effect
       effect="fillet_chamfer"
       id="path-effect619"
       is_visible="true"
       lpeversion="1"
       nodesatellites_param="F,0,0,1,0,0.77174221,0,1 @ F,0,0,1,0,0.65481146,0,1 @ F,0,0,1,0,0.84190036,0,1 @ F,0,0,1,0,0.76985003,0,1"
       unit="px"
       method="auto"
       mode="F"
       radius="0"
       chamfer_steps="1"
       flexible="false"
       use_knot_distance="true"
       apply_no_radius="true"
       apply_with_radius="true"
       only_selected="false"
       hide_knots="false" /><inkscape:path-effect
       effect="fillet_chamfer"
       id="path-effect535"
       is_visible="true"
       lpeversion="1"
       nodesatellites_param="F,0,0,1,0,0,0,1 @ F,0,0,1,0,0,0,1 @ F,0,0,1,0,0,0,1 @ F,0,0,1,0,0,0,1 @ F,0,0,1,0,3.0691108,0,1 @ F,0,0,1,0,0.4205136,0,1 @ F,0,0,1,0,3.3253829,0,1 @ F,0,0,1,0,0,0,1"
       unit="px"
       method="auto"
       mode="F"
       radius="0"
       chamfer_steps="1"
       flexible="false"
       use_knot_distance="true"
       apply_no_radius="true"
       apply_with_radius="true"
       only_selected="false"
       hide_knots="false" /><inkscape:path-effect
       effect="fillet_chamfer"
       id="path-effect535-0"
       is_visible="true"
       lpeversion="1"
       nodesatellites_param="F,0,0,1,0,0,0,1 @ F,0,0,1,0,0,0,1 @ F,0,0,1,0,0,0,1 @ F,0,0,1,0,0,0,1 @ F,0,0,1,0,3.0691108,0,1 @ F,0,0,1,0,0.4205136,0,1 @ F,0,0,1,0,3.3253829,0,1 @ F,0,0,1,0,0,0,1"
       unit="px"
       method="auto"
       mode="F"
       radius="0"
       chamfer_steps="1"
       flexible="false"
       use_knot_distance="true"
       apply_no_radius="true"
       apply_with_radius="true"
       only_selected="false"
       hide_knots="false" /></defs><g
     inkscape:label="Layer 1"
     inkscape:groupmode="layer"
     id="layer1"
     transform="translate(16.054511,-1.7380458)"><g
       id="g842"
       transform="matrix(1.4532974,0,0,1.4532974,-52.214051,-6.8225555)"><path
         id="path8676"
         style="fill:#ff2a2a;stroke-width:0;stroke-linecap:round;stroke-linejoin:round;stroke-dasharray:none;paint-order:markers stroke fill"
         inkscape:transform-center-x="-0.021478626"
         inkscape:transform-center-y="-0.027785134"
         d="m 82.446429,8.4996978 c -4.236704,0.016218 -8.474637,0.8594518 -10.133709,2.5111142 -3.318141,3.303326 -3.306772,17.006418 0.0021,20.312221 3.308938,3.305804 16.965895,3.370772 20.262083,0.05298 2.100599,-2.114375 3.35458,-7.730484 2.356592,-12.866907 -0.416274,-2.142466 -1.998444,-2.32673 -3.669783,-2.097218 -1.224586,0.168164 -2.667665,0.262859 -3.584151,-0.874977 -0.916487,-1.137835 -1.171505,-2.293777 -1.017751,-3.428297 0.265763,-1.803551 0.158732,-3.4263061 -1.66916,-3.5881698 -0.937475,-0.083016 -1.577668,-0.024456 -2.546255,-0.020747 z m -3.288771,7.6560192 c 1.207979,0.02171 3.412214,1.161582 4.185547,1.585536 0.916542,0.502465 3.770417,2.159445 3.795474,3.203076 0.02506,1.04363 -2.728042,2.870685 -3.61875,3.416779 -0.890708,0.546095 -3.788782,2.160415 -4.705762,1.658076 -0.91698,-0.50234 -1.102628,-3.793903 -1.123281,-4.837327 -0.02065,-1.043424 0.01769,-4.371898 0.913488,-4.911643 0.139969,-0.08433 0.329585,-0.118518 0.553284,-0.114497 z"
         sodipodi:nodetypes="sscssszcsssssssssss" /><path
         style="fill:#3a7f0d;stroke-width:0.0198091"
         d="m 94.248978,6.0168783 c 0,0 0.564042,2.2623693 -3.385607,3.155666 -2.146116,0.4851715 -3.996901,2.2568507 -2.578721,5.6125567 0.354013,-1.356996 1.456254,-4.302445 4.403992,-4.584438 0,0 -2.793501,0.607483 -3.676663,5.059225 1.334068,0.388228 4.509157,0.978817 5.858371,-1.655464 1.781936,-3.480567 -0.621372,-7.5875457 -0.621372,-7.5875457 z"
         id="path1911" /><path
         style="fill:#49a010;stroke-width:0.0198091"
         d="m 89.015913,15.241402 c 3.057802,-0.735426 5.55233,-3.133808 6.309496,-6.3182354 -0.360312,-1.6796655 -1.076431,-2.9062883 -1.076431,-2.9062883 0,0 0.564042,2.2623693 -3.385607,3.155666 -2.146116,0.4851715 -3.996901,2.2568507 -2.578721,5.6125567 0.354013,-1.356996 1.456254,-4.302445 4.403992,-4.584438 -1.12e-4,5e-6 -2.785425,0.606149 -3.672729,5.040739 z"
         id="path1913" /></g><text
       xml:space="preserve"
       style="font-size:31.8284px;font-family:Vazirmatn;-inkscape-font-specification:Vazirmatn;text-align:center;text-anchor:middle;fill:#333333;stroke:#333333;stroke-width:0;stroke-linecap:round;paint-order:markers stroke fill"
       x="15.299882"
       y="30.746023"
       id="text1881"><tspan
         sodipodi:role="line"
         id="tspan1879"
         x="15.299881"
         y="30.746023"
         style="font-style:normal;font-variant:normal;font-weight:900;font-stretch:normal;font-family:Vazirmatn;-inkscape-font-specification:'Vazirmatn Heavy';stroke-width:0">آلبالو</tspan></text></g></svg>
