<?xml version="1.0" encoding="UTF-8" standalone="no"?>
<svg
   width="24"
   height="24"
   fill="currentColor"
   class="bi bi-skip-backward"
   viewBox="0 0 24 24"
   version="1.1"
   id="svg4"
   sodipodi:docname="Backward.svg"
   inkscape:version="1.2 (dc2aedaf03, 2022-05-15)"
   xmlns:inkscape="http://www.inkscape.org/namespaces/inkscape"
   xmlns:sodipodi="http://sodipodi.sourceforge.net/DTD/sodipodi-0.dtd"
   xmlns="http://www.w3.org/2000/svg"
   xmlns:svg="http://www.w3.org/2000/svg">
  <defs
     id="defs8" />
  <sodipodi:namedview
     id="namedview6"
     pagecolor="#ffffff"
     bordercolor="#000000"
     borderopacity="0.25"
     inkscape:showpageshadow="2"
     inkscape:pageopacity="0.0"
     inkscape:pagecheckerboard="0"
     inkscape:deskcolor="#d1d1d1"
     showgrid="false"
     inkscape:zoom="14.75"
     inkscape:cx="5.5932203"
     inkscape:cy="8"
     inkscape:window-width="1680"
     inkscape:window-height="987"
     inkscape:window-x="-8"
     inkscape:window-y="-8"
     inkscape:window-maximized="1"
     inkscape:current-layer="svg4" />
  <g
     id="g850"
     transform="matrix(-1.5000452,0,0,1.5000452,24,-3.6169519e-4)"
     style="fill:#333333">
    <path
       d="M 6.804,8 1,4.633 v 6.734 z M 7.596,7.304 a 0.802,0.802 0 0 1 0,1.392 L 1.233,12.388 C 0.713,12.69 0,12.345 0,11.692 V 4.308 C 0,3.655 0.713,3.31 1.233,3.612 Z"
       id="path2"
       style="fill:#333333" />
    <path
       d="M 14.804,8 9,4.633 v 6.734 z m 0.792,-0.696 a 0.802,0.802 0 0 1 0,1.392 L 9.233,12.388 C 8.713,12.69 8,12.345 8,11.692 V 4.308 C 8,3.655 8.713,3.31 9.233,3.612 Z"
       id="path4"
       style="fill:#333333" />
  </g>
</svg>
