<?xml version="1.0" encoding="UTF-8" standalone="no"?>
<svg
   width="24"
   height="24"
   viewBox="0 0 24 24"
   fill="none"
   stroke="currentColor"
   stroke-width="2"
   stroke-linecap="round"
   stroke-linejoin="round"
   display="block"
   id="Play"
   version="1.1"
   sodipodi:docname="play.svg"
   inkscape:version="1.2 (dc2aedaf03, 2022-05-15)"
   xml:space="preserve"
   xmlns:inkscape="http://www.inkscape.org/namespaces/inkscape"
   xmlns:sodipodi="http://sodipodi.sourceforge.net/DTD/sodipodi-0.dtd"
   xmlns="http://www.w3.org/2000/svg"
   xmlns:svg="http://www.w3.org/2000/svg"><defs
     id="defs11" /><sodipodi:namedview
     id="namedview9"
     pagecolor="#ffffff"
     bordercolor="#666666"
     borderopacity="1.0"
     inkscape:showpageshadow="2"
     inkscape:pageopacity="0.0"
     inkscape:pagecheckerboard="0"
     inkscape:deskcolor="#d1d1d1"
     showgrid="false"
     inkscape:zoom="6.9532168"
     inkscape:cx="10.28301"
     inkscape:cy="-14.669469"
     inkscape:window-width="1680"
     inkscape:window-height="987"
     inkscape:window-x="-8"
     inkscape:window-y="-8"
     inkscape:window-maximized="1"
     inkscape:current-layer="Play" /><path
     style="fill:#333333;stroke-width:0.131636"
     d="M 5.0270764,22.324395 C 4.4182879,22.203231 3.7984077,21.616497 3.6339544,21.005764 3.5910816,20.846546 3.5741254,17.64823 3.5854358,11.853204 L 3.6028293,2.9453866 3.7513647,2.6674092 C 4.101754,2.0116743 4.6984287,1.6420373 5.4042305,1.6434655 5.6442525,1.643917 5.9468836,1.68921 6.0767473,1.7440408 6.4448721,1.8994709 19.564902,10.401675 19.851226,10.67035 c 0.373128,0.350127 0.566752,0.802789 0.566752,1.324977 0,0.522187 -0.193624,0.974849 -0.566752,1.324976 -0.276703,0.259646 -13.40849,8.773701 -13.7415714,8.909411 -0.2949823,0.120187 -0.7530943,0.160253 -1.0825688,0.09468 z"
     id="path2307" /></svg>
